<svg t="1734331964931" viewBox="0 0 1024 1024" version="1.1" xmlns="http://www.w3.org/2000/svg" p-id="8881" width="256" height="256"><path d="M530.901333 808.96l1.408-277.333333 234.666667 1.152a85.589333 85.589333 0 0 0 84.906667 85.76l42.666666 0.213333a85.589333 85.589333 0 0 0 85.76-84.906667l0.213334-42.666666c0.256-46.933333-37.973333-85.504-84.906667-85.76l-42.666667-0.170667a85.589333 85.589333 0 0 0-85.76 84.906667l-234.666666-1.19466699 1.408-277.33333301c0.128-23.466667 19.413333-42.58133301 42.88-42.453334l192 0.981334a85.589333 85.589333 0 0 0 84.906666 85.76l42.666667 0.21333299a85.589333 85.589333 0 0 0 85.75999999-84.90666699l0.21333301-42.66666599c0.213333-46.933333-37.97333299-85.546667-84.906666-85.76000001l-42.666667-0.213334a85.589333 85.589333 0 0 0-85.76 84.906667l-192-0.981333a85.589333 85.589333 0 0 0-85.75999999 84.906666l-1.40800001 277.333334-234.666667-1.194667-0.213333 42.666667 234.66666701 1.194666-1.40800001 277.333334a85.589333 85.589333 0 0 0 84.906666 85.76l192 0.938666a85.589333 85.589333 0 0 0 84.906667 85.76l42.666667 0.213334a85.589333 85.589333 0 0 0 85.76-84.906667l0.213333-42.666667c0.256-46.933333-37.973333-85.504-84.906667-85.76l-42.666666-0.213333a85.589333 85.589333 0 0 0-85.76 84.906667l-192-0.938667c-23.466667-0.128-42.538667-19.413333-42.453334-42.88z m277.12 44.032c0.128-23.466667 19.413333-42.538667 42.88-42.453333l42.666667 0.213333c23.466667 0.128 42.58133301 19.413333 42.453333 42.88l-0.213333 42.666667a42.794667 42.794667 0 0 1-42.88 42.453333l-42.666667-0.213333c-23.466667-0.085333-42.58133301-19.413333-42.453333-42.88l0.213333-42.666667z m3.669334-725.333333c0.128-23.466667 19.413333-42.538667 42.88000001-42.410667l42.66666599 0.21333301c23.466667 0.085333 42.58133301 19.413333 42.453334 42.87999999l-0.213334 42.666667a42.794667 42.794667 0 0 1-42.88 42.453333l-42.666666-0.213333c-23.466667-0.128-42.58133301-19.413333-42.45333399-42.88l0.21333399-42.666667z m-1.834667 362.666666c0.128-23.466667 19.413333-42.538667 42.88-42.453333l42.666667 0.256c23.466667 0.085333 42.58133301 19.413333 42.453333 42.88l-0.213333 42.666667a42.794667 42.794667 0 0 1-42.88 42.410666l-42.666667-0.213333c-23.466667-0.085333-42.58133301-19.413333-42.45333299-42.88l0.21333299-42.666667z" fill="#dfdfdf" p-id="8882"></path><path d="M42.666667 490.666667l0 42.666666c0 46.933333 38.4 85.333333 85.333333 85.333334l42.666667 0c46.933333 0 85.333333-38.4 85.33333301-85.333334l0-42.666666c0-46.933333-38.4-85.333333-85.33333301-85.333334L128 405.333333c-46.933333 0-85.333333 38.4-85.333333 85.333334z" fill="#dfdfdf" p-id="8883"></path></svg>