<svg
  t="1734332418793"
  viewBox="0 0 2027 1024"
  version="1.1"
  xmlns="http://www.w3.org/2000/svg"
  p-id="9982"
  width="256"
  height="256"
>
  <path
    d="M743.209486 461.407115v101.18577h-161.897233v-101.18577z"
    fill="#dfdfdf"
    p-id="9983"
  ></path>
  <path
    d="M401.201581 914.213439v-75.889328h119.39921s2.529644-8.094862 2.529644-20.743083V206.418972a30.86166 30.86166 0 0 0-6.577075-21.75494H397.660079V110.29249h123.44664a88.031621 88.031621 0 0 1 78.418973 96.632411v610.150198a88.031621 88.031621 0 0 1-78.418973 96.632411z"
    fill="#dfdfdf"
    p-id="9984"
  ></path>
  <path
    d="M721.960474 309.628458m151.778656 0l263.083004 0q151.778656 0 151.778657 151.778657l0 101.18577q0 151.778656-151.778657 151.778657l-263.083004 0q-151.778656 0-151.778656-151.778657l0-101.18577q0-151.778656 151.778656-151.778657Z"
    fill="#dfdfdf"
    p-id="9985"
  ></path>
  <path
    d="M303.557312 318.735178H139.130435A139.130435 139.130435 0 0 1 0 179.604743v-40.474308A139.130435 139.130435 0 0 1 139.130435 0H303.557312a139.130435 139.130435 0 0 1 136.600791 139.130435v40.474308A139.130435 139.130435 0 0 1 303.557312 318.735178zM139.130435 75.889328A63.241107 63.241107 0 0 0 75.889328 139.130435v40.474308A63.241107 63.241107 0 0 0 139.130435 242.84585H303.557312a63.241107 63.241107 0 0 0 60.711463-63.241107v-40.474308A63.241107 63.241107 0 0 0 303.557312 75.889328zM303.557312 1024H139.130435A139.130435 139.130435 0 0 1 0 884.869565v-40.474308a139.130435 139.130435 0 0 1 139.130435-139.130435H303.557312a139.130435 139.130435 0 0 1 136.600791 139.130435v40.474308A139.130435 139.130435 0 0 1 303.557312 1024z m-161.897233-242.84585a63.241107 63.241107 0 0 0-65.770751 63.241107v40.474308a63.241107 63.241107 0 0 0 63.241107 63.241107H303.557312a63.241107 63.241107 0 0 0 60.711463-63.241107v-40.474308A63.241107 63.241107 0 0 0 303.557312 781.15415zM1446.450593 461.407115v101.18577h-161.897233v-101.18577z"
    fill="#dfdfdf"
    p-id="9986"
  ></path>
  <path
    d="M1626.561265 914.213439h-119.39921a88.031621 88.031621 0 0 1-78.418972-96.632411V206.418972a88.031621 88.031621 0 0 1 78.418972-96.632411h123.446641v75.889328h-123.446641c2.529644 0 0 8.094862 0 20.743083v610.656127a30.86166 30.86166 0 0 0 6.577075 21.754941h115.351779z"
    fill="#dfdfdf"
    p-id="9987"
  ></path>
  <path
    d="M1888.632411 318.735178h-161.897233a139.130435 139.130435 0 0 1-139.130435-139.130435v-40.474308A139.130435 139.130435 0 0 1 1726.735178 0h161.897233a139.130435 139.130435 0 0 1 139.130435 139.130435v40.474308a139.130435 139.130435 0 0 1-139.130435 139.130435z m-161.897233-242.84585a63.241107 63.241107 0 0 0-63.241107 63.241107v40.474308a63.241107 63.241107 0 0 0 63.241107 63.241107h161.897233a63.241107 63.241107 0 0 0 63.241107-63.241107v-40.474308a63.241107 63.241107 0 0 0-63.241107-63.241107zM1888.632411 1024h-161.897233a139.130435 139.130435 0 0 1-139.130435-139.130435v-40.474308a139.130435 139.130435 0 0 1 139.130435-139.130435h161.897233a139.130435 139.130435 0 0 1 139.130435 139.130435v40.474308a139.130435 139.130435 0 0 1-139.130435 139.130435z m-161.897233-242.84585a63.241107 63.241107 0 0 0-63.241107 63.241107v40.474308a63.241107 63.241107 0 0 0 63.241107 63.241107h161.897233a63.241107 63.241107 0 0 0 63.241107-63.241107v-40.474308a63.241107 63.241107 0 0 0-63.241107-63.241107z"
    fill="#dfdfdf"
    p-id="9988"
  ></path>
</svg>
