<svg t="1734332583843" class="icon" viewBox="0 0 1542 1024" version="1.1" xmlns="http://www.w3.org/2000/svg" p-id="5163" width="256" height="256"><path d="M392.538315 0m111.940584 0l194.030345 0q111.940584 0 111.940584 111.940584l0 74.627056q0 111.940584-111.940584 111.940584l-194.030345 0q-111.940584 0-111.940584-111.940584l0-74.627056q0-111.940584 111.940584-111.940584Z" fill="#dfdfdf" p-id="5164"></path><path d="M631.344894 414.553296h-59.701645v-119.403289h59.701645zM1115.301352 769.031812h-119.403289a102.612202 102.612202 0 0 1-102.612202-102.612202v-29.850822a102.612202 102.612202 0 0 1 102.612202-102.612202h119.403289a102.612202 102.612202 0 0 1 102.612202 102.612202v29.850822a102.612202 102.612202 0 0 1-102.612202 102.612202z m-119.403289-179.104934a46.64191 46.64191 0 0 0-46.64191 46.64191v29.850822a46.64191 46.64191 0 0 0 46.64191 46.64191h119.403289a46.64191 46.64191 0 0 0 46.64191-46.64191v-29.850822a46.64191 46.64191 0 0 0-46.64191-46.64191zM223.881168 769.031812H102.612202A102.612202 102.612202 0 0 1 0 666.41961v-29.850822a102.612202 102.612202 0 0 1 102.612202-102.612202H223.881168a102.612202 102.612202 0 0 1 100.746526 102.612202v29.850822A102.612202 102.612202 0 0 1 223.881168 769.031812z m-119.40329-179.104934a46.64191 46.64191 0 0 0-48.507586 46.64191v29.850822a46.64191 46.64191 0 0 0 46.64191 46.64191H223.881168a46.64191 46.64191 0 0 0 44.776234-46.64191v-29.850822A46.64191 46.64191 0 0 0 223.881168 589.926878zM661.195716 783.584088h-119.403289a102.612202 102.612202 0 0 1-102.612202-102.612202v-44.403098a102.612202 102.612202 0 0 1 102.612202-102.612202h119.403289a102.612202 102.612202 0 0 1 102.612202 102.612202v43.656828A102.612202 102.612202 0 0 1 661.195716 783.584088z m-119.403289-192.91094a46.64191 46.64191 0 0 0-46.64191 46.64191v43.656828a46.64191 46.64191 0 0 0 46.64191 46.64191h119.403289A46.64191 46.64191 0 0 0 708.957032 680.225616v-43.656828a46.64191 46.64191 0 0 0-46.64191-46.64191zM1396.645354 995.151792h-119.40329a102.612202 102.612202 0 0 1-102.612202-102.612202v-29.850822a102.612202 102.612202 0 0 1 102.612202-102.612202h119.40329a102.612202 102.612202 0 0 1 102.612202 102.612202v29.850822a102.612202 102.612202 0 0 1-102.612202 102.612202z m-119.40329-179.104934A46.64191 46.64191 0 0 0 1231.346424 862.688768v29.850822a46.64191 46.64191 0 0 0 46.64191 46.64191h119.40329a46.64191 46.64191 0 0 0 46.64191-46.64191v-29.850822a46.64191 46.64191 0 0 0-46.64191-46.64191z" fill="#dfdfdf" p-id="5165"></path><path d="M181.716881 569.777573h-55.970292v-65.298674a117.537613 117.537613 0 0 1 117.537614-117.537614h716.419737a117.537613 117.537613 0 0 1 117.537614 117.537614V559.70292h-55.970292v-55.224021a61.567321 61.567321 0 0 0-61.567322-61.567321H243.284203a61.567321 61.567321 0 0 0-61.567322 61.567321z" fill="#dfdfdf" p-id="5166"></path><path d="M631.344894 548.881997h-59.701645v-149.254112h59.701645z" fill="#dfdfdf" p-id="5167"></path><path d="M1094.032641 907.091866m-29.850822 0l0 0q-29.850822 0-29.850822-29.850822l0-119.40329q0-29.850822 29.850822-29.850822l0 0q29.850822 0 29.850822 29.850822l0 119.40329q0 29.850822-29.850822 29.850822Z" fill="#dfdfdf" p-id="5168"></path><path d="M1198.51052 847.763356m0 29.850823l0 0q0 29.850822-29.850823 29.850822l-89.552467 0q-29.850822 0-29.850822-29.850822l0 0q0-29.850822 29.850822-29.850823l89.552467 0q29.850822 0 29.850823 29.850823Z" fill="#dfdfdf" p-id="5169"></path></svg>