<svg t="1734332812798" viewBox="0 0 1694 1024" version="1.1" xmlns="http://www.w3.org/2000/svg" p-id="9614" width="256" height="256"><path d="M430.510511 665.753754m-115.315316 0l-199.87988 0q-115.315315 0-115.315315-115.315316l0-76.876876q0-115.315315 115.315315-115.315316l199.87988 0q115.315315 0 115.315316 115.315316l0 76.876876q0 115.315315-115.315316 115.315316Z" fill="#dfdfdf" p-id="9615"></path><path d="M1472.960961 481.633634m0 30.75075l0 0q0 30.750751-30.750751 30.750751l-1014.774775 0q-30.750751 0-30.75075-30.750751l0 0q0-30.750751 30.75075-30.75075l1014.774775 0q30.750751 0 30.750751 30.75075Z" fill="#dfdfdf" p-id="9616"></path><path d="M824.888889 242.162162h-123.003003a105.705706 105.705706 0 0 1-105.705706-105.705706v-30.75075A105.705706 105.705706 0 0 1 701.885886 0h123.003003a105.705706 105.705706 0 0 1 105.705706 105.705706v30.75075a105.705706 105.705706 0 0 1-105.705706 105.705706z m-123.003003-184.504504A48.048048 48.048048 0 0 0 653.453453 105.705706v30.75075a48.048048 48.048048 0 0 0 48.432433 48.048049h123.003003a48.048048 48.048048 0 0 0 48.048048-48.048049v-30.75075a48.048048 48.048048 0 0 0-48.048048-48.048048zM978.642643 1024h-123.003003a105.705706 105.705706 0 0 1-105.705706-105.705706v-30.75075a105.705706 105.705706 0 0 1 105.705706-105.705706h123.003003a105.705706 105.705706 0 0 1 105.705705 105.705706v30.75075a105.705706 105.705706 0 0 1-105.705705 105.705706z m-123.003003-184.504505A48.048048 48.048048 0 0 0 807.207207 887.543544v30.75075a48.048048 48.048048 0 0 0 48.048048 48.048048h123.003003a48.048048 48.048048 0 0 0 48.048048-48.048048v-30.75075a48.048048 48.048048 0 0 0-48.048048-48.048049zM1404.156156 242.162162h-123.003003a105.705706 105.705706 0 0 1-105.705706-105.705706v-30.75075A105.705706 105.705706 0 0 1 1281.153153 0h123.003003a105.705706 105.705706 0 0 1 105.705706 105.705706v30.75075a105.705706 105.705706 0 0 1-105.705706 105.705706z m-123.003003-184.504504a48.048048 48.048048 0 0 0-48.048048 48.048048v30.75075a48.048048 48.048048 0 0 0 48.048048 48.048049h123.003003a48.048048 48.048048 0 0 0 48.048048-48.048049v-30.75075a48.048048 48.048048 0 0 0-48.048048-48.048048zM1588.660661 1024h-123.003003a105.705706 105.705706 0 0 1-105.705706-105.705706v-30.75075a105.705706 105.705706 0 0 1 105.705706-105.705706h123.003003a105.705706 105.705706 0 0 1 105.705705 105.705706v30.75075a105.705706 105.705706 0 0 1-105.705705 105.705706z m-123.003003-184.504505a48.048048 48.048048 0 0 0-48.048048 48.048049v30.75075a48.048048 48.048048 0 0 0 48.048048 48.048048h123.003003a48.048048 48.048048 0 0 0 48.048048-48.048048v-30.75075a48.048048 48.048048 0 0 0-48.048048-48.048049z" fill="#dfdfdf" p-id="9617"></path><path d="M697.657658 538.138138a26.906907 26.906907 0 0 1-25.36937-30.366366L730.33033 221.021021a30.750751 30.750751 0 0 1 35.363364-21.525526 26.906907 26.906907 0 0 1 25.369369 30.366367l-56.12012 285.597597a30.750751 30.750751 0 0 1-37.285285 22.678679zM1278.078078 538.138138a26.906907 26.906907 0 0 1-25.369369-30.366366l56.12012-285.597598a30.750751 30.750751 0 0 1 36.516516-22.678679 26.906907 26.906907 0 0 1 25.36937 30.366367l-56.12012 285.597597a30.750751 30.750751 0 0 1-36.516517 22.678679zM914.45045 832.192192a26.906907 26.906907 0 0 0 25.36937-30.366366L884.084084 516.228228a30.750751 30.750751 0 0 0-35.363363-21.525525 26.906907 26.906907 0 0 0-25.36937 30.366366l56.12012 285.597598a30.750751 30.750751 0 0 0 34.978979 21.525525zM1537.537538 814.894895a26.906907 26.906907 0 0 0 21.909909-32.672673l-85.333333-278.294294a30.750751 30.750751 0 0 0-38.438438-17.681682 26.906907 26.906907 0 0 0-21.90991 32.672673L1499.099099 797.213213a30.750751 30.750751 0 0 0 38.438439 17.681682z" fill="#dfdfdf" p-id="9618"></path></svg>