<svg t="1734332525008" class="icon" viewBox="0 0 1255 1024" version="1.1" xmlns="http://www.w3.org/2000/svg" p-id="3399" width="256" height="256"><path d="M549.12728 235.88939L509.433222 235.732497a122.690724 122.690724 0 0 1-55.697195-14.120416 119.552854 119.552854 0 0 1-57.815258-74.21063 116.72877 116.72877 0 0 1 3.530104-69.817611 117.513238 117.513238 0 0 1 54.3636-62.992744c15.689351-7.844675 32.476956-12.551481 50.04903-13.335948 56.32477-1.568935 112.649539-1.568935 168.974308 0l17.65052 2.353403c13.179055 3.13787 25.887429 7.844675 37.340655 14.904883 36.634634 22.749559 58.678172 64.326338 56.481663 106.687586-0.549127 11.767013-2.980977 23.534026-7.060208 34.516572-4.471465 12.551481-11.217886 24.318494-19.611688 34.516572-9.648951 11.767013-21.494411 21.965091-34.751912 29.025299-15.689351 8.629143-32.39851 12.551481-50.04903 14.120415-15.061777 0.784468-30.202 0.784468-45.263777 0.784468V471.072759c68.719357 0 137.51716-2.353403 206.314964 0.235341 21.180624 1.333595 42.04746 5.491273 61.972936 13.335948 51.774858 20.396156 93.116297 62.914297 112.178858 115.159835 7.295548 20.396156 10.982546 41.57678 11.767013 62.757404 0.470681 40.792312 0.23534 82.369092 0 123.161404 2.039616 0 4.079231 0 6.040401 0.784467 17.572073 1.568935 34.516572 5.491273 50.049029 14.120416 13.335948 7.060208 25.102961 17.258286 34.673465 29.025299 8.472249 10.198078 15.21867 21.965091 19.768582 34.516572 3.922338 10.982546 6.27574 22.749559 6.275741 34.516572 2.353403 43.145715-20.396156 84.722495-56.481664 106.687586-11.767013 7.060208-24.318494 11.767013-37.654442 14.904883-6.27574 1.333595-11.767013 1.568935-18.042753 2.353403-28.240832 0.784468-56.481663 0-85.506962 0-19.611689-0.313787-38.43891-4.706805-55.697196-14.120416a118.297705 118.297705 0 0 1-61.816042-109.511669c0.784468-11.767013 3.13787-23.534026 7.060208-34.516572 4.706805-12.551481 11.374779-24.318494 19.611688-34.516572 9.805844-11.767013 21.651304-21.415964 34.908806-28.633065 15.689351-8.236909 32.39851-12.551481 49.970582-13.806629 1.568935 0 3.451657 0 5.491273-0.313787 0-41.106099 1.804275-82.369092 0.235341-123.632085-0.784468-12.551481-3.294764-25.102961-7.844676-36.869974a118.219259 118.219259 0 0 0-69.033144-67.464209c-13.335948-4.706805-26.907237-7.060208-40.949205-7.060208H627.574034v235.340263h6.0404c17.572073 1.333595 34.516572 5.491273 50.049029 14.120416 13.335948 7.060208 25.102961 16.866052 34.673466 28.554618 8.472249 10.198078 15.21867 21.965091 19.768582 34.516572 3.922338 10.982546 6.27574 22.749559 6.27574 34.516572 2.353403 42.753481-20.396156 84.330261-56.481663 106.687586a125.20102 125.20102 0 0 1-55.697195 16.944499c-28.240832 0.784468-56.481663 0-85.506963 0-19.611689-0.392234-38.43891-4.706805-55.697195-14.120416a118.454599 118.454599 0 0 1-61.816042-109.433222c0.784468-11.767013 3.13787-23.534026 7.060207-34.516572 4.706805-12.551481 11.374779-24.318494 19.611689-34.516572 9.805844-11.767013 21.651304-21.180624 34.908806-28.711512 15.689351-8.236909 32.39851-12.551481 49.970582-14.120416h5.883507V549.519514c-67.464209 0-134.928417-2.353403-202.392626 0.156893a119.16062 119.16062 0 0 0-44.71465 11.37478c-26.671896 12.708374-47.85252 35.301039-58.599726 62.757403-4.706805 11.923907-7.060208 24.475387-7.844675 37.262208-1.568935 41.184546-0.784468 82.525985 0 123.788978a122.376937 122.376937 0 0 1 56.481663 14.27731c13.335948 7.060208 25.102961 16.866052 34.516572 28.554618 8.629143 10.198078 15.061777 21.965091 19.611688 34.359679 3.922338 10.982546 6.27574 22.749559 7.060208 34.516572a120.258874 120.258874 0 0 1-56.481663 106.687585c-11.767013 6.903314-24.318494 11.767013-37.654442 14.591097-5.726613 1.176701-11.767013 1.725829-17.493626 2.196509-28.240832 0.784468-56.638557 0.156894-84.957835 0.156893a122.690724 122.690724 0 0 1-55.697195-14.120416c-28.240832-15.689351-49.970582-42.753481-58.050599-74.210629-3.13787-11.531673-4.314571-23.534026-3.686997-35.301039 0.784468-11.767013 3.13787-23.534026 7.060208-34.516572 4.706805-12.551481 11.296333-24.1616 19.611688-34.359679 9.727398-11.767013 21.572857-21.415964 34.830359-28.633065 15.689351-7.844675 32.163169-12.551481 49.970583-13.335948h5.334379c-0.392234-40.792312 0.627574-81.584624 1.176701-122.376937 0.784468-22.749559 5.099039-45.499117 13.492842-66.679741 21.180624-53.343793 65.346146-94.920573 119.6313-113.747794 20.003922-6.27574 41.027652-9.413611 62.36517-10.198078H549.12728v-235.340263z m-355.834477 627.1818c-12.002353 0-23.92626 0.23534-35.928614 0.235341a40.635419 40.635419 0 0 0-29.49598 12.865267 41.733673 41.733673 0 0 0-7.844675 12.865268c-6.27574 17.493626 0.784468 37.419102 16.473818 47.068053a40.007845 40.007845 0 0 0 18.356541 5.491272c27.456364 0.784468 54.912728 0.784468 82.525985 0a40.007845 40.007845 0 0 0 18.278094-5.491272c15.689351-9.648951 22.749559-29.574426 16.473819-47.068053a35.693273 35.693273 0 0 0-7.060208-11.453226 37.183762 37.183762 0 0 0-11.767013-9.570504 43.616395 43.616395 0 0 0-16.473819-4.706805 1506.334575 1506.334575 0 0 0-43.930182-0.235341z m784.467542 0c-11.923907 0-23.92626 0.23534-35.928613 0.235341a40.635419 40.635419 0 0 0-29.49598 12.865267 41.733673 41.733673 0 0 0-7.844675 12.865268c-6.27574 17.493626 0.784468 37.419102 16.473818 47.068053a40.007845 40.007845 0 0 0 18.356541 5.491272c27.456364 0.784468 54.912728 0.784468 82.525985 0a40.007845 40.007845 0 0 0 18.278094-5.491272c15.689351-9.648951 22.749559-29.574426 16.473818-47.068053a35.693273 35.693273 0 0 0-7.060208-11.453226 37.183762 37.183762 0 0 0-11.767013-9.570504 43.616395 43.616395 0 0 0-16.473818-4.706805c-12.551481-0.23534-25.887429-0.313787-38.43891-0.235341a41.890567 41.890567 0 0 1-6.27574 0zM549.676407 863.306531a40.635419 40.635419 0 0 0-29.495979 12.865267 65.424593 65.424593 0 0 0-7.844676 12.865268c-6.27574 17.493626 0.784468 37.419102 16.473819 47.068053 6.27574 3.37321 11.767013 5.099039 18.827221 5.491272 27.456364 0.784468 54.912728 0.784468 82.369092 0a42.204354 42.204354 0 0 0 18.827221-5.491272 39.929398 39.929398 0 0 0 10.198078-58.521279 37.183762 37.183762 0 0 0-11.767014-9.570504 36.791528 36.791528 0 0 0-16.473818-4.706805c-26.671896-0.627574-53.343793 0-80.015689 0z" fill="#dfdfdf" p-id="3400"></path></svg>