<svg t="1734332911268" viewBox="0 0 1496 1024" version="1.1" xmlns="http://www.w3.org/2000/svg" p-id="10989" width="256" height="256"><path d="M39.384615 423.227077m34.264616 0l288.137846 0q34.264615 0 34.264615 34.264615l0 153.993846q0 34.264615-34.264615 34.264616l-288.137846 0q-34.264615 0-34.264616-34.264616l0-153.993846q0-34.264615 34.264616-34.264615Z" fill="#dfdfdf" p-id="10990"></path><path d="M535.000615 498.766769v68.529231h-140.20923v-68.529231zM927.665231 498.766769v68.529231h-173.292308v-68.529231z" fill="#dfdfdf" p-id="10991"></path><path d="M754.294154 610.304c0 18.904615-15.281231 34.264615-34.185846 34.264615H514.678154a34.264615 34.264615 0 0 1-34.264616-34.264615V473.403077c0-18.904615 15.281231-34.264615 34.264616-34.264615h205.430154c18.904615 0 34.185846 15.281231 34.185846 34.264615v136.900923z m-68.450462-34.185846v-68.529231H548.864v68.529231h136.979692zM1201.545846 594.471385c0 18.904615-15.281231 34.264615-34.185846 34.264615h-205.430154a34.264615 34.264615 0 0 1-34.264615-34.264615V457.491692c0-18.904615 15.281231-34.264615 34.264615-34.264615h205.430154c18.904615 0 34.185846 15.36 34.185846 34.264615v136.979693z m-68.450461-34.264616v-68.529231h-136.979693v68.529231h136.979693zM1441.792 944.128c0 18.904615-15.36 34.185846-34.264615 34.185846h-205.430154a34.264615 34.264615 0 0 1-34.264616-34.185846v-137.058462c0-18.904615 15.36-34.185846 34.264616-34.185846h205.430154c18.904615 0 34.264615 15.36 34.264615 34.264616v136.979692z m-68.529231-34.264615v-68.529231h-136.900923v68.529231h136.979692zM1028.253538 244.814769c0 18.904615-15.36 34.264615-34.264615 34.264616H788.558769a34.264615 34.264615 0 0 1-34.264615-34.264616V107.913846c0-18.904615 15.36-34.185846 34.264615-34.185846h205.430154c18.904615 0 34.264615 15.281231 34.264615 34.185846v137.058462z m-68.52923-34.264615v-68.450462H822.902154v68.529231h136.979692zM685.843692 144.147692v294.99077h-68.52923V144.147692z" fill="#dfdfdf" p-id="10992"></path><path d="M821.405538 205.430154h-204.012307v-68.529231h204.012307zM1232.265846 904.743385h-204.012308v-68.529231h204.012308z" fill="#dfdfdf" p-id="10993"></path><path d="M1096.704 577.536v327.286154h-68.529231V577.536z" fill="#dfdfdf" p-id="10994"></path></svg>