<svg width="44" height="42" viewBox="0 0 44 42" fill="none" xmlns="http://www.w3.org/2000/svg">
<path d="M21.3281 11C16.6113 11 12.7148 14.5137 12.1133 19.0664H6.32324C5.83789 17.8633 4.65869 17.0156 3.28125 17.0156C1.46973 17.0156 0 18.4854 0 20.2969C0 22.1084 1.46973 23.5781 3.28125 23.5781C4.65869 23.5781 5.83789 22.7305 6.32324 21.5274H12.1099C12.7148 26.0801 16.6113 29.5938 21.3281 29.5938C26.4619 29.5938 30.625 25.4307 30.625 20.2969C30.625 15.1631 26.4619 11 21.3281 11ZM25.7031 21.1856C25.7031 21.336 25.5801 21.459 25.4297 21.459H22.4902V24.3985C22.4902 24.5489 22.3672 24.6719 22.2168 24.6719H20.4395C20.2891 24.6719 20.166 24.5489 20.166 24.3985V21.459H17.2266C17.0762 21.459 16.9531 21.336 16.9531 21.1856V19.4082C16.9531 19.2578 17.0762 19.1348 17.2266 19.1348H20.166V16.1953C20.166 16.0449 20.2891 15.9219 20.4395 15.9219H22.2168C22.3672 15.9219 22.4902 16.0449 22.4902 16.1953V19.1348H25.4297C25.5801 19.1348 25.7031 19.2578 25.7031 19.4082V21.1856Z" fill="#515151"/>
<path d="M25.5 26.4375C25.7457 26.4373 25.9829 26.5333 26.1663 26.7071C26.3496 26.8809 26.4664 27.1203 26.4942 27.3797C26.522 27.6391 26.459 27.9003 26.3171 28.1135C26.1752 28.3266 25.9645 28.4768 25.725 28.5354L25.726 30.4878C25.7261 30.5712 25.7446 30.6534 25.7801 30.7278C25.8157 30.8022 25.8672 30.8666 25.9305 30.9159L25.9805 30.9505L30.7535 33.8049C30.8189 33.8441 30.8918 33.8671 30.9668 33.8723C31.0418 33.8774 31.1169 33.8645 31.1865 33.8346L31.245 33.8043L35.995 30.9515C36.0632 30.9104 36.1214 30.8529 36.1649 30.7835C36.2083 30.7141 36.2357 30.6348 36.245 30.552L36.249 30.4888V29.8906C36.249 29.8285 36.2694 29.7684 36.3068 29.7206C36.3441 29.6729 36.396 29.6406 36.4535 29.6293L36.4985 29.625C36.5648 29.625 36.6284 29.653 36.6753 29.7028C36.7222 29.7526 36.7485 29.8202 36.7485 29.8906V30.4888C36.7485 30.6769 36.7016 30.8617 36.6124 31.0241C36.5232 31.1866 36.3951 31.3211 36.241 31.4137L31.491 34.2665C31.3412 34.3566 31.1721 34.4041 31 34.4044C30.8278 34.4047 30.6586 34.3577 30.5085 34.2681L25.735 31.4137C25.5803 31.3213 25.4516 31.1869 25.3619 31.0242C25.2723 30.8614 25.225 30.6763 25.225 30.4878V28.5221C24.9927 28.4521 24.7921 28.295 24.6602 28.08C24.5284 27.8651 24.4742 27.6066 24.5077 27.3525C24.5413 27.0984 24.6602 26.8658 24.8426 26.6976C25.025 26.5294 25.2585 26.437 25.5 26.4375ZM30.3215 24.8326L32.3725 30.1563H31.617L31.032 28.5439H28.937L28.3875 30.1563H27.683L29.607 24.8326H30.322H30.3215ZM33.678 24.8326V30.1563H33.015V24.8326H33.678ZM31.491 20.7414L36.241 23.5943C36.3952 23.6868 36.5234 23.8212 36.6127 23.9837C36.7019 24.1462 36.749 24.331 36.749 24.5192L36.7485 26.4704C36.9843 26.5347 37.1899 26.688 37.3268 26.9018C37.4638 27.1155 37.5227 27.375 37.4925 27.6316C37.4622 27.8882 37.345 28.1242 37.1627 28.2955C36.9804 28.4668 36.7456 28.5616 36.5022 28.5622C36.2588 28.5627 36.0236 28.4689 35.8407 28.2983C35.6577 28.1278 35.5396 27.8922 35.5084 27.6358C35.4773 27.3793 35.5352 27.1196 35.6713 26.9053C35.8075 26.6909 36.0125 26.5367 36.248 26.4715L36.249 24.5192C36.2489 24.4359 36.2304 24.3538 36.195 24.2795C36.1596 24.2052 36.1082 24.1408 36.045 24.0915L35.995 24.057L31.245 21.2042C31.1797 21.1649 31.1069 21.1417 31.0321 21.1364C30.9572 21.131 30.8822 21.1437 30.8125 21.1733L30.7535 21.2031L25.9805 24.058C25.9121 24.099 25.8537 24.1565 25.8101 24.2259C25.7665 24.2953 25.7389 24.3747 25.7295 24.4575L25.726 24.5208V25.1094C25.7269 25.1763 25.7039 25.2411 25.6618 25.2908C25.6196 25.3406 25.5613 25.3715 25.4986 25.3776C25.4359 25.3836 25.3733 25.3643 25.3234 25.3234C25.2735 25.2826 25.24 25.2232 25.2295 25.1572L25.2255 25.1094V24.5208C25.2255 24.3322 25.2728 24.1471 25.3624 23.9844C25.4521 23.8216 25.5808 23.6872 25.7355 23.5948L30.5085 20.7404C30.6585 20.6507 30.8278 20.6037 30.9999 20.6039C31.172 20.6041 31.3412 20.6514 31.491 20.7414ZM25.5 26.9688C25.3674 26.9688 25.2402 27.0247 25.1465 27.1244C25.0527 27.224 25 27.3591 25 27.5C25 27.6409 25.0527 27.776 25.1465 27.8757C25.2402 27.9753 25.3674 28.0313 25.5 28.0313C25.6326 28.0313 25.7598 27.9753 25.8536 27.8757C25.9473 27.776 26 27.6409 26 27.5C26 27.3591 25.9473 27.224 25.8536 27.1244C25.7598 27.0247 25.6326 26.9688 25.5 26.9688ZM36.5 26.9688C36.3674 26.9688 36.2402 27.0247 36.1465 27.1244C36.0527 27.224 36 27.3591 36 27.5C36 27.6409 36.0527 27.776 36.1465 27.8757C36.2402 27.9753 36.3674 28.0313 36.5 28.0313C36.6326 28.0313 36.7598 27.9753 36.8536 27.8757C36.9473 27.776 37 27.6409 37 27.5C37 27.3591 36.9473 27.224 36.8536 27.1244C36.7598 27.0247 36.6326 26.9688 36.5 26.9688ZM29.949 25.3915C29.885 25.7331 29.795 26.0715 29.679 26.4083L29.129 27.9702H30.8275L30.3045 26.4954L30.2465 26.3313C30.1364 26.022 30.0372 25.7085 29.949 25.3915Z" fill="#515151"/>
</svg>
