<svg width="33" height="24" viewBox="0 0 33 24" fill="none" xmlns="http://www.w3.org/2000/svg">
<path d="M6.89002 17.49L9.19002 19.79M19.79 14.93C17.73 16.98 14.78 17.61 12.19 16.8L7.48002 21.5C7.14002 21.85 6.47002 22.06 5.99002 21.99L3.81002 21.69C3.09002 21.59 2.42002 20.91 2.31002 20.19L2.01002 18.01C1.94002 17.53 2.17002 16.86 2.50002 16.52L7.20002 11.82C6.40002 9.22 7.02002 6.27 9.08002 4.22C12.03 1.27 16.82 1.27 19.78 4.22C22.74 7.17 22.74 11.98 19.79 14.93ZM16 9.5C16 10.3284 15.3285 11 14.5 11C13.6716 11 13 10.3284 13 9.5C13 8.67157 13.6716 8 14.5 8C15.3285 8 16 8.67157 16 9.5Z" stroke="#515151" stroke-width="1.5" stroke-linecap="round" stroke-linejoin="round"/>
<path d="M21.0018 16.4953C21.2475 16.4951 21.4846 16.5855 21.6679 16.7492C21.8513 16.9129 21.968 17.1385 21.9958 17.3828C22.0236 17.6272 21.9606 17.8732 21.8188 18.074C21.6769 18.2748 21.4662 18.4163 21.2268 18.4715L21.2278 20.3106C21.2278 20.3891 21.2463 20.4666 21.2819 20.5367C21.3174 20.6068 21.3689 20.6675 21.4322 20.7139L21.4822 20.7464L26.2544 23.4353C26.3199 23.4722 26.3927 23.4939 26.4677 23.4987C26.5426 23.5036 26.6177 23.4915 26.6874 23.4633L26.7458 23.4348L31.4951 20.7474C31.5633 20.7087 31.6215 20.6545 31.6649 20.5891C31.7083 20.5238 31.7358 20.4491 31.745 20.3711L31.749 20.3116V19.7481C31.749 19.6896 31.7694 19.6329 31.8068 19.5879C31.8441 19.543 31.896 19.5125 31.9535 19.5019L31.9985 19.4979C32.0648 19.4979 32.1283 19.5242 32.1752 19.5711C32.2221 19.6181 32.2484 19.6817 32.2484 19.7481V20.3116C32.2485 20.4888 32.2015 20.6628 32.1124 20.8158C32.0232 20.9689 31.8951 21.0956 31.741 21.1828L26.9918 23.8702C26.842 23.955 26.6729 23.9997 26.5008 24C26.3287 24.0003 26.1595 23.9561 26.0095 23.8717L21.2368 21.1828C21.0821 21.0958 20.9533 20.9691 20.8637 20.8159C20.7741 20.6626 20.7269 20.4882 20.7268 20.3106V18.459C20.4945 18.393 20.294 18.245 20.1621 18.0425C20.0303 17.84 19.9762 17.5966 20.0097 17.3572C20.0432 17.1178 20.1621 16.8987 20.3445 16.7402C20.5268 16.5818 20.7603 16.4948 21.0018 16.4953ZM25.8225 14.9834L27.8732 19.9983H27.1178L26.5329 18.4795H24.4382L23.8888 19.9983H23.1844L25.1081 14.9834H25.823H25.8225ZM29.1784 14.9834V19.9983H28.5156V14.9834H29.1784ZM26.9918 11.1296L31.741 13.8169C31.8952 13.9041 32.0234 14.0307 32.1126 14.1838C32.2019 14.3369 32.2489 14.5109 32.2489 14.6882L32.2484 16.5263C32.4841 16.5868 32.6897 16.7312 32.8267 16.9326C32.9636 17.1339 33.0225 17.3784 32.9923 17.6201C32.9621 17.8618 32.8448 18.0841 32.6626 18.2455C32.4803 18.4069 32.2455 18.4962 32.0022 18.4967C31.7588 18.4972 31.5237 18.4088 31.3408 18.2481C31.1579 18.0875 31.0397 17.8656 31.0086 17.624C30.9774 17.3824 31.0353 17.1378 31.1714 16.9359C31.3075 16.734 31.5126 16.5887 31.748 16.5273L31.749 14.6882C31.7489 14.6097 31.7304 14.5324 31.695 14.4624C31.6596 14.3924 31.6082 14.3318 31.5451 14.2853L31.4951 14.2528L26.7458 11.5655C26.6806 11.5285 26.6078 11.5066 26.5329 11.5016C26.4581 11.4966 26.3831 11.5085 26.3134 11.5364L26.2544 11.5645L21.4822 14.2538C21.4138 14.2924 21.3554 14.3466 21.3118 14.412C21.2682 14.4773 21.2406 14.5521 21.2313 14.6301L21.2278 14.6897V15.2442C21.2286 15.3072 21.2057 15.3683 21.1635 15.4151C21.1214 15.4619 21.0631 15.4911 21.0004 15.4968C20.9377 15.5025 20.8751 15.4843 20.8252 15.4458C20.7753 15.4073 20.7418 15.3514 20.7313 15.2892L20.7273 15.2442V14.6897C20.7274 14.5121 20.7746 14.3377 20.8642 14.1844C20.9538 14.0311 21.0826 13.9045 21.2373 13.8174L26.0095 11.1286C26.1594 11.0441 26.3287 10.9998 26.5008 11C26.6729 11.0002 26.842 11.0448 26.9918 11.1296ZM21.0018 16.9957C20.8692 16.9957 20.7421 17.0484 20.6483 17.1423C20.5545 17.2361 20.5019 17.3634 20.5019 17.4961C20.5019 17.6288 20.5545 17.7561 20.6483 17.85C20.7421 17.9438 20.8692 17.9966 21.0018 17.9966C21.1344 17.9966 21.2615 17.9438 21.3553 17.85C21.449 17.7561 21.5017 17.6288 21.5017 17.4961C21.5017 17.3634 21.449 17.2361 21.3553 17.1423C21.2615 17.0484 21.1344 16.9957 21.0018 16.9957ZM32 16.9957C31.8674 16.9957 31.7402 17.0484 31.6465 17.1423C31.5527 17.2361 31.5001 17.3634 31.5001 17.4961C31.5001 17.6288 31.5527 17.7561 31.6465 17.85C31.7402 17.9438 31.8674 17.9966 32 17.9966C32.1326 17.9966 32.2597 17.9438 32.3535 17.85C32.4472 17.7561 32.4999 17.6288 32.4999 17.4961C32.4999 17.3634 32.4472 17.2361 32.3535 17.1423C32.2597 17.0484 32.1326 16.9957 32 16.9957ZM25.4501 15.5099C25.3861 15.8317 25.2961 16.1505 25.1801 16.4677L24.6302 17.939H26.3284L25.8055 16.5498L25.7475 16.3952C25.6375 16.1039 25.5383 15.8086 25.4501 15.5099Z" fill="#515151"/>
</svg>
